<?xml version="1.0" encoding="UTF-8" standalone="no"?>
<svg
   version="1.1"
   width="595.6955"
   height="267.25534"
   viewBox="-2 78 595.6955 267.25534"
   xml:space="preserve"
   id="svg31"
   sodipodi:docname="logo-full.svg"
   inkscape:version="1.1.2 (0a00cf5339, 2022-02-04)"
   xmlns:inkscape="http://www.inkscape.org/namespaces/inkscape"
   xmlns:sodipodi="http://sodipodi.sourceforge.net/DTD/sodipodi-0.dtd"
   xmlns="http://www.w3.org/2000/svg"
   xmlns:svg="http://www.w3.org/2000/svg"><sodipodi:namedview
   id="namedview33"
   pagecolor="#505050"
   bordercolor="#ffffff"
   borderopacity="1"
   inkscape:pageshadow="0"
   inkscape:pageopacity="0"
   inkscape:pagecheckerboard="1"
   showgrid="false"
   fit-margin-top="8"
   fit-margin-left="8"
   fit-margin-right="8"
   fit-margin-bottom="8"
   inkscape:zoom="0.50543776"
   inkscape:cx="269.07368"
   inkscape:cy="-43.526625"
   inkscape:window-width="1366"
   inkscape:window-height="739"
   inkscape:window-x="0"
   inkscape:window-y="0"
   inkscape:window-maximized="1"
   inkscape:current-layer="svg31" />
<desc
   id="desc2">Created with Fabric.js 4.6.0</desc>
<defs
   id="defs4">


</defs>
<g
   transform="matrix(1.32,0,0,0.67,253.5,211.62499)"
   id="ttqI1nKuI1CVQPTpvqoO9">
<path
   style="opacity:1;fill:#ffffff;fill-opacity:0;fill-rule:nonzero;stroke:none;stroke-width:1;stroke-linecap:butt;stroke-linejoin:miter;stroke-miterlimit:4;stroke-dasharray:none;stroke-dashoffset:0"
   vector-effect="non-scaling-stroke"
   d="m -187.5,187.5 v -374.99999 h 375 V 187.5 Z"
   stroke-linecap="round"
   id="path6" />
</g>
<g
   transform="matrix(1.33,0,0,1.33,161.82,232.52499)"
   id="IusmbisZZfEelnUkQYuC_">
<path
   style="opacity:1;fill:#10b981;fill-rule:nonzero;stroke:none;stroke-width:1;stroke-linecap:butt;stroke-linejoin:miter;stroke-miterlimit:4;stroke-dasharray:none;stroke-dashoffset:0"
   vector-effect="non-scaling-stroke"
   transform="translate(-119.06,-171.54)"
   d="m 119.0625,162.38281 c -5.03516,0 -9.13281,4.10547 -9.13281,9.15625 0,5.04297 4.09765,9.15235 9.13281,9.15235 5.03516,0 9.13281,-4.10938 9.13281,-9.15235 0,-5.05078 -4.09765,-9.15625 -9.13281,-9.15625 z m 0,13.25781 c -2.25781,0 -4.09375,-1.83984 -4.09375,-4.10156 0,-2.26562 1.83594,-4.10547 4.09375,-4.10547 2.25781,0 4.09375,1.83985 4.09375,4.10547 0,2.26172 -1.83594,4.10156 -4.09375,4.10156 z m 0,0"
   stroke-linecap="round"
   id="path9" />
</g>
<g
   transform="matrix(1.33,0,0,1.33,123.43,280.33499)"
   id="FRmZshrDJm3PlIjwpXWHw">
<path
   style="opacity:1;fill:#10b981;fill-rule:nonzero;stroke:none;stroke-width:1;stroke-linecap:butt;stroke-linejoin:miter;stroke-miterlimit:4;stroke-dasharray:none;stroke-dashoffset:0"
   vector-effect="non-scaling-stroke"
   d="m 0,-8.19336 c -4.50391,0 -8.17187,3.67578 -8.17187,8.19531 0,4.51562 3.66797,8.19141 8.17188,8.19141 4.50781,0 8.17188,-3.67578 8.17188,-8.19141 0,-4.51953 -3.66406,-8.19531 -8.17187,-8.19531 z M 0,3.14258 c -1.72656,0 -3.13672,-1.41016 -3.13672,-3.14062 0,-1.73438 1.41016,-3.14453 3.13672,-3.14453 1.73047,0 3.13672,1.41016 3.13672,3.14453 0,1.73047 -1.40625,3.14062 -3.13672,3.14062 z m 0,0"
   stroke-linecap="round"
   id="path12" />
</g>
<g
   transform="matrix(1.33,0,0,1.33,125.18,243.20499)"
   id="WI3ItZaa4tutM7KfnzKFT"
   clip-path="url(#CLIPPATH_12)">
<clipPath
   id="CLIPPATH_12">
	<path
   transform="translate(-91.31,-179.25)"
   id="clip1"
   d="M 5,108 H 177.62109 V 250 H 5 Z m 0,0"
   stroke-linecap="round" />
</clipPath>
<path
   style="opacity:1;fill:#10b981;fill-rule:nonzero;stroke:none;stroke-width:1;stroke-linecap:butt;stroke-linejoin:miter;stroke-miterlimit:4;stroke-dasharray:none;stroke-dashoffset:0"
   vector-effect="non-scaling-stroke"
   d="m 85.91275,0.36566 c -0.98828,-7.42187 -13.19141,-11.0625 -21.88281,-12.72656 1.24609,-1.21094 2.44922,-2.44141 3.56641,-3.66406 8.22656,-8.99219 11.15625,-15.98828 8.69922,-20.79297 -3.86328,-7.56641 -19.62891,-5.74219 -28.4375,-4.04688 1.16016,-4.41797 1.98047,-8.76953 2.33594,-12.58594 0.79688,-8.48047 -0.69922,-13.92578 -4.44922,-16.18359 -4.61719,-2.77344 -11.65234,-0.16016 -21.28125,7.30859 -12.23047,9.48438 -17.25,18.80078 -17.54688,19.44141 -1.25781,-0.27734 -2.55469,-0.42187 -3.88281,-0.42187 -9.29297,0 -16.98437,6.97266 -18.16016,15.96875 -11,2.17578 -24.4375,5.86719 -40.01562,12.05859 l -19.97656,2.51172 c -6.53125,0.82031 -11.28906,6.625 -10.82813,13.20703 l 1.22266,17.44141 c 0.35547,5.10547 4.18359,9.20313 9.11328,10 l 1.22656,2.96484 c 0.76563,1.84375 2.47656,3.04297 4.46484,3.125 0.07813,0.0039 3.25781,0.14844 4.71875,-2.73437 l 1.42578,-2.75391 8.36328,0.37109 1.17578,2.83203 c 0.76563,1.84766 2.47656,3.04687 4.46484,3.12891 0.07813,0.0039 3.16406,0.11719 4.71875,-2.73437 l 1.39844,-2.70312 8.41406,0.375 1.15234,2.77734 c 0.18359,0.44922 0.42578,0.85547 0.71094,1.21875 l -0.53125,0.14844 -1.91797,-2.28516 c -1.28516,-1.52734 -3.27734,-2.15234 -5.19922,-1.62891 -1.92578,0.51953 -3.33203,2.06641 -3.67187,4.03125 l -0.51953,2.98437 -8.12109,2.22656 -1.94922,-2.32031 c -1.28516,-1.52734 -3.27734,-2.15234 -5.20313,-1.63281 -1.92187,0.52344 -3.32812,2.07031 -3.67187,4.03516 l -0.52344,3.03125 -8.54687,2.34375 c -5.16797,1.41797 -8.50781,6.32422 -7.94922,11.66406 l 0.72656,6.89063 c 0.24219,2.30469 2.81641,8.21094 9.76563,7.40234 L 11.03775,56.50629 c 0.86719,-0.13672 12.20313,-2.03125 21.42188,-9.75781 11.89453,7.86328 36.43359,5.70703 38.9375,5.15625 4.54297,-1.00391 7.46875,-2.94141 8.68359,-5.75781 3.54297,-8.1875 -9.16016,-19.92187 -16.375,-25.72656 2.44141,-1.04297 4.85547,-2.1875 7.07812,-3.36719 4.52344,-2.41016 8.10938,-4.85156 10.64844,-7.26562 3.37891,-3.20703 4.88672,-6.375 4.48047,-9.42187 z m -58.30078,-58.75 c 5.46484,-4.13281 12.625,-8.67187 15.53906,-6.91797 3.74609,2.25 2.63281,16.22266 -2.42969,30.51172 -0.46484,1.31641 0.21875,2.75781 1.53125,3.22656 0.27734,0.09766 2.53516,0.29688 3.21484,-1.53516 0.27734,-0.75 0.52344,-1.51172 0.77344,-2.27734 12.96094,-2.88281 23.82813,-2.55078 25.57031,0.86328 1.55078,3.03516 -3.30078,10.01563 -7.92969,15.07422 -4.14062,4.52734 -9.03516,8.76172 -12.89844,11.56641 -0.08594,-12.76562 -10.47266,-23.12891 -23.23047,-23.12891 -2.43359,0 -4.80078,0.375 -7.07422,1.10547 -1.36719,-4.89844 -4.69922,-8.90625 -9.01172,-11.23047 0.17188,-0.35156 5.70313,-9.50781 15.94531,-17.25781 z M 12.09243,-0.67341 c 1.02344,2.11719 2.99609,1.41797 3.33203,1.26563 1.26953,-0.57031 1.83594,-2.06641 1.26562,-3.33984 -0.70312,-1.5625 -1.0625,-3.23437 -1.0625,-4.96094 0,-1.26172 0.19531,-2.50391 0.57422,-3.69141 2.09766,-1.74609 3.60937,-3.82812 4.52734,-6.20312 2.0625,-1.47266 4.48047,-2.25391 7.01563,-2.25391 6.68359,0 12.12109,5.44922 12.12109,12.14844 0,6.69531 -5.4375,12.14453 -12.12109,12.14453 -1.48828,0 -2.94141,-0.26953 -4.31641,-0.79687 -1.30078,-0.5 -2.75781,0.15234 -3.25391,1.45313 -0.49609,1.30469 0.15234,2.76563 1.44922,3.26172 1.95703,0.75391 4.01563,1.13281 6.12109,1.13281 9.46094,0 17.15625,-7.71484 17.15625,-17.19531 0,-9.48437 -7.69531,-17.19922 -17.15625,-17.19922 -2.0625,0 -4.07422,0.36328 -5.96875,1.07031 -0.0039,-0.35937 -0.01953,-0.72266 -0.04688,-1.08984 1.92578,-0.67969 3.94141,-1.02344 6.02344,-1.02344 10.03125,0 18.19531,8.17969 18.19531,18.24219 0,10.05859 -8.16406,18.23828 -18.19531,18.23828 -10.01562,0 -18.16797,-8.15234 -18.19531,-18.1875 0.35547,-0.13672 0.70312,-0.27344 1.03906,-0.41797 0,0.12109 -0.25391,3.76953 1.49609,7.40234 z M 3.03384,-38.25544 c 5.35938,0 10.12891,3.25391 12.19531,8.03125 -4.60547,-0.17969 -13.11719,-0.0625 -25.05078,1.92187 1.49219,-5.71875 6.6875,-9.95312 12.85547,-9.95312 z m 13.62891,13.17578 c 0.4375,4.10156 -0.73047,7.28125 -3.55078,9.6875 -5.90234,5.03125 -18.78906,6.83594 -37.26563,5.21875 -8.58984,-0.75391 -16.45312,-2.07812 -21.875,-3.17187 33.88281,-12.28906 56.34375,-12.11328 62.69141,-11.73437 z M -17.6185,2.7055 c 3.73438,0 7.25781,-2.52344 6.75781,-7.25781 2.51953,-0.02344 4.89844,-0.13672 7.13281,-0.33203 0,9.71875 -6.22656,14.1875 -13.89063,14.1875 -7.66406,0 -13.89844,-6.25 -13.89844,-13.92969 0,-0.41797 0.02734,-0.83203 0.0625,-1.24609 1.86719,0.23047 3.78516,0.44531 5.73438,0.625 0.47266,0.04688 0.94141,0.08594 1.41016,0.12891 -0.17578,6.00391 2.95313,7.82422 6.69141,7.82422 z m -1.60547,-7.46484 c 1.10937,0.0625 2.19141,0.10938 3.25781,0.14453 0.44141,1.40625 -0.69531,2.27344 -1.65234,2.27344 -0.96094,0 -2.0625,-0.90234 -1.60547,-2.41797 z m -61.58985,6.36328 c 1.94531,0.44531 3.38281,1.96875 3.38281,3.78125 0,1.64844 -1.1875,3.05859 -2.86328,3.63672 z m 6.6836,21.36328 c -2.625,-0.11719 -4.79688,-1.96094 -5.41016,-4.44141 l 64.39063,3.57031 c -0.47266,1.08984 -0.82031,2.24219 -1.02734,3.44531 z m 2.23047,26.58594 56.66406,-15.54687 c 0.64063,1.52734 1.51953,2.92969 2.58984,4.16016 l -63.52344,17.64844 c -0.30078,-2.86719 1.49219,-5.5 4.26953,-6.26172 z m 82.15625,1.96093 -0.05078,0.01172 -81.75391,14.13672 c -3.10937,0.26563 -3.79687,-2.02344 -3.89844,-2.95703 l -0.17578,-1.67969 68.0625,-19.03906 c 1.93359,0.89453 4.08594,1.39844 6.35547,1.39844 8.38281,0 15.19922,-6.83594 15.19922,-15.23437 0,-8.40234 -6.81641,-15.23828 -15.19922,-15.23828 -4.10937,0 -7.84375,1.64453 -10.58203,4.3125 l -66.23828,-3.67188 c 3.31641,-1.41016 5.63281,-4.53906 5.63281,-8.16797 0,-4.40625 -3.41797,-8.08203 -7.90625,-8.82422 1.01953,-2.28516 3.16797,-3.98437 5.80469,-4.31641 l 13.3125,-1.67578 1.59375,16.63281 c 0.125,1.30859 1.21875,2.28516 2.50391,2.28516 0.07813,0 2.78906,-0.37891 2.51172,-2.76562 l -1.60937,-16.78125 1.35547,-0.17187 c 2.39063,0.75391 9.47656,2.36719 18.375,3.67969 -0.0625,0.63672 -0.10547,1.28125 -0.10547,1.92578 0,10.46484 8.49609,18.97656 18.9375,18.97656 10.4375,0 18.93359,-8.51172 18.93359,-18.97656 0,-0.29687 -0.00781,-0.58984 -0.02344,-0.88281 1.14063,-0.1875 2.23828,-0.40625 3.28516,-0.64844 0.80078,12.12109 10.88672,21.73828 23.17578,21.73828 3.82813,0 7.44141,-0.94141 10.62891,-2.59375 C 40.1901,22.31879 38.9987,30.2641 34.82292,36.6391 26.84245,48.82269 10.41667,51.49066 10.25651,51.5141 Z M -11.3646,28.15081 c 0,-5.62109 4.55859,-10.1875 10.16016,-10.1875 5.60547,0 10.16406,4.56641 10.16406,10.1875 0,5.61719 -4.55859,10.18359 -10.16406,10.18359 -5.60156,0 -10.16016,-4.56641 -10.16016,-10.18359 z m 82.10938,5.83594 c 3.78516,4.4375 5.54687,8.23047 4.71484,10.15234 -0.84766,1.95703 -5.71484,4.03125 -16.65234,3.44141 -8.75,-0.47266 -17.19922,-1.45313 -22.5625,-4.51172 0.98047,-1.11719 1.91016,-2.32031 2.76562,-3.62109 2.73828,-4.16797 4.40234,-8.85156 4.99219,-14.01172 0.5,0.03906 5.77734,1.03125 14.26563,-2.875 4.84766,3.63672 9.32031,7.72266 12.47656,11.42578 z M 68.42056,12.59222 C 53.03775,20.9555 45.31118,20.49066 44.24087,20.39691 44.18618,17.0805 43.73306,13.59222 42.8854,9.93988 c 3.37109,-2.91016 5.90234,-6.76953 7.17578,-11.16406 2.61719,-1.51172 5.91797,-3.96484 9.23828,-6.81641 5.67578,0.83984 10.84766,2.125 14.66797,3.66016 4.18359,1.68359 6.71484,3.65625 6.95313,5.41797 0.28125,2.11328 -2.87109,6.32031 -12.5,11.55469 z m 0,0"
   stroke-linecap="round"
   id="path17" />
</g>
<g
   transform="matrix(1.33,0,0,1.33,87.89,156.01499)"
   id="oStMSqA-891_RZR59W4ml"
   clip-path="url(#CLIPPATH_13)">
<clipPath
   id="CLIPPATH_13">
	<path
   transform="translate(-64.19,-115.4)"
   id="clip6"
   d="m -23.238281,101.05078 113.375,-63.61328 42.261721,75.32031 -113.375002,63.61328 z m 0,0"
   stroke-linecap="round" />
</clipPath>
<path
   style="opacity:1;fill:#10b981;fill-rule:nonzero;stroke:none;stroke-width:1;stroke-linecap:butt;stroke-linejoin:miter;stroke-miterlimit:4;stroke-dasharray:none;stroke-dashoffset:0"
   vector-effect="non-scaling-stroke"
   transform="translate(-64.19,-115.4)"
   d="m 107.39844,120.66797 -0.0352,0.0586 c -0.0156,0.0234 -1.54687,2.50391 -6.16797,5.09375 l -54.742185,30.71875 c -4.621094,2.59375 -7.53125,2.60547 -7.539063,2.60547 l -0.08984,-0.004 c -6.09375,0.10547 -11.726563,-1.30859 -16.765625,-4.1914 0.394531,-1.75781 0.167968,-3.66406 -0.78125,-5.35938 C 20.625,148.42578 19.703125,147.5 18.636719,146.84766 l 4.804687,-2.69532 c 0.0039,1.2461 0.3125,2.51563 0.96875,3.67969 2.039063,3.63672 6.644532,4.9375 10.269532,2.90234 3.625,-2.03125 4.914062,-6.64453 2.875,-10.27734 -0.65625,-1.16406 -1.574219,-2.08984 -2.640626,-2.74219 l 6.105469,-3.42578 c 0,1.25 0.3125,2.51563 0.964844,3.6836 2.039063,3.63281 6.644531,4.93359 10.269531,2.90234 3.625,-2.03516 4.914063,-6.64453 2.875,-10.27734 -0.652344,-1.16797 -1.574218,-2.09375 -2.640625,-2.7461 l 4.804688,-2.69531 c 0.0039,1.25 0.3125,2.51563 0.96875,3.68359 2.039062,3.63282 6.644531,4.9375 10.269531,2.90235 3.625,-2.03516 4.910156,-6.64453 2.871094,-10.27735 C 70.75,120.29688 69.832031,119.375 68.765625,118.71875 l 4.804687,-2.69531 c 0,1.25 0.308594,2.51562 0.964844,3.68359 2.039063,3.63281 6.648438,4.9375 10.269532,2.90235 3.625,-2.03125 4.914062,-6.64454 2.875,-10.27735 -0.652344,-1.16797 -1.574219,-2.08984 -2.640626,-2.74609 l 6.105469,-3.42188 c 0.0039,1.2461 0.3125,2.51563 0.96875,3.67969 2.039063,3.63672 6.644531,4.9375 10.269529,2.90625 3.625,-2.03516 4.91016,-6.64453 2.8711,-10.28125 -0.65235,-1.16406 -1.57032,-2.08984 -2.63672,-2.742188 l 4.80469,-2.695312 c 0,1.246094 0.30859,2.515625 0.96484,3.68359 0.94922,1.69141 2.46094,2.87891 4.16797,3.45704 -0.16406,5.80468 -1.89453,11.34765 -5.15625,16.49609 z M 11.5,155.07422 c -0.992188,-1.76953 -0.363281,-4.01953 1.402344,-5.01172 1.765625,-0.98828 4.011718,-0.35547 5.007812,1.41797 0.992188,1.76953 0.363282,4.01953 -1.402344,5.00781 -1.765624,0.99219 -4.011718,0.35938 -5.007812,-1.41406 z m 22.683594,-12.72656 c 0.996094,1.77343 0.367187,4.01953 -1.398438,5.01171 -1.769531,0.98829 -4.015625,0.35547 -5.007812,-1.41796 -0.996094,-1.76954 -0.367188,-4.01954 1.402344,-5.00782 1.765624,-0.99218 4.011718,-0.35937 5.003906,1.41407 z m 17.578125,-9.86329 c 0.992187,1.77344 0.363281,4.01954 -1.402344,5.01172 -1.765625,0.99219 -4.011719,0.35547 -5.007813,-1.41406 -0.992187,-1.77344 -0.363281,-4.01953 1.402344,-5.01172 1.765625,-0.99219 4.011719,-0.35547 5.007813,1.41406 z m 16.273437,-9.1289 c 0.996094,1.76953 0.367188,4.01562 -1.402344,5.00781 -1.765624,0.99219 -4.011718,0.35938 -5.003906,-1.41406 -0.996094,-1.77344 -0.367187,-4.01953 1.398438,-5.01172 1.769531,-0.99219 4.015625,-0.35547 5.007812,1.41797 z M 84.3125,114.22266 c 0.992188,1.76953 0.363281,4.01953 -1.402344,5.00781 -1.765625,0.99219 -4.011718,0.35937 -5.007812,-1.41406 -0.992188,-1.77344 -0.363282,-4.01953 1.402344,-5.01172 1.765624,-0.98828 4.011718,-0.35547 5.007812,1.41797 z m 17.57422,-9.86328 c 0.99609,1.77343 0.36719,4.01953 -1.40234,5.01171 -1.76563,0.99219 -4.011724,0.35547 -5.003911,-1.41406 -0.996094,-1.77344 -0.367188,-4.01953 1.398437,-5.01172 1.769532,-0.99218 4.015624,-0.35937 5.007814,1.41407 z m -91.714845,37.30859 c 0.144531,-0.58594 0.585937,-1.07813 1.347656,-1.50391 L 105.42578,87.472656 c 0.75391,-0.425781 1.40235,-0.542968 1.97266,-0.371094 0.93359,0.285157 2.29687,2.5625 2.84375,3.929688 -0.0898,0.03516 -98.207034,55.07812 -98.207034,55.07812 -0.875,-1.16796 -2.140625,-3.32812 -1.863281,-4.4414 z M 36.078125,111.00391 57.75,98.84375 c 0.929688,-0.519531 1.257812,-1.699219 0.734375,-2.632812 -0.523437,-0.933594 -1.703125,-1.265626 -2.632813,-0.742188 l -20.972656,11.76563 c -1.121094,-3.73047 -2.101562,-7.554692 -2.820312,-11.253911 l 25.21875,-14.148438 c 2.746094,2.539063 5.46875,5.382813 8.046875,8.320313 l -4.53125,2.542968 c -0.929688,0.523438 -1.261719,1.699219 -0.734375,2.632813 0.519531,0.933594 1.699218,1.265625 2.628906,0.746094 l 5.195312,-2.914063 c 2.125,2.570313 4.109376,5.160156 5.882813,7.636724 L 39.4375,120.05859 c -1.148438,-2.77734 -2.296875,-5.84765 -3.359375,-9.05468 z M 35.355469,72.617188 c 4.8125,-2.699219 11.765625,0.640624 18.832031,6.503906 L 31.371094,91.925781 C 30.085938,82.867188 30.769531,75.191406 35.355469,72.617188 Z m 85.800781,20.121093 c -1.69531,-2.460937 -4.56641,-3.617187 -7.34766,-3.1875 -0.5664,-1.414062 -1.03515,-2.300781 -1.15234,-2.515625 -0.23437,-0.460937 -1.53906,-2.820312 -4.09375,-3.621094 -1.11719,-0.351562 -2.89453,-0.519531 -5.03125,0.679688 L 77.152344,98.894531 C 74.140625,94.667969 66.542969,84.585938 57.570312,76.902344 47.648438,68.40625 39.535156,65.828125 33.460938,69.238281 c -5.820313,3.265625 -7.765626,11.421875 -5.785157,24.246094 1.855469,12.007815 6.464844,23.906255 8.367188,28.476565 L 9.625,136.78516 c -2.136719,1.19921 -2.921875,2.80468 -3.203125,3.9414 -0.648437,2.59766 0.683594,4.94141 0.957031,5.38281 0.121094,0.20704 0.632813,1.07032 1.550782,2.29688 -1.957032,2.33594 -2.378907,5.74219 -0.796876,8.55859 2.039063,3.63282 6.644532,4.9375 10.269532,2.90235 0.71875,-0.40235 1.347656,-0.91016 1.871094,-1.48828 5.609374,3.18359 11.851562,4.74218 18.59375,4.63671 0.601562,0.004 4.128906,-0.0977 9.484374,-3.10156 l 54.742188,-30.71484 c 5.35156,-3.00391 7.27734,-5.96484 7.58594,-6.48047 3.60156,-5.69531 5.52344,-11.83594 5.73047,-18.28125 0.76953,-0.14844 1.52734,-0.41797 2.24609,-0.82031 1.53125,-0.85938 2.71875,-2.23438 3.34375,-3.871096 0.38281,-0.996094 -0.11719,-2.117188 -1.11328,-2.5 -0.99609,-0.386719 -2.11328,0.109375 -2.49609,1.109375 -0.3086,0.808593 -0.8711,1.457031 -1.62891,1.882811 -1.76563,0.99219 -4.01172,0.35547 -5.00781,-1.414061 -0.99219,-1.773438 -0.36328,-4.019531 1.40234,-5.011719 1.66406,-0.933594 3.73828,-0.453125 4.82031,1.121094 0.60938,0.878906 1.8125,1.101562 2.69141,0.496094 0.87891,-0.605469 1.09766,-1.8125 0.48828,-2.691407"
   stroke-linecap="round"
   id="path22" />
</g>
<text
   xml:space="preserve"
   style="font-style:normal;font-variant:normal;font-weight:normal;font-stretch:normal;font-size:80px;line-height:1.25;font-family:'DejaVu Sans';-inkscape-font-specification:'DejaVu Sans, Normal';font-variant-ligatures:normal;font-variant-caps:normal;font-variant-numeric:normal;font-variant-east-asian:normal;fill:#10b981;fill-opacity:1;stroke:none;stroke-width:1"
   x="254.09395"
   y="120.61472"
   id="text1657"><tspan
     sodipodi:role="line"
     id="tspan1655"
     style="font-style:normal;font-variant:normal;font-weight:normal;font-stretch:normal;font-size:80px;font-family:'DejaVu Sans';-inkscape-font-specification:'DejaVu Sans, Normal';font-variant-ligatures:normal;font-variant-caps:normal;font-variant-numeric:normal;font-variant-east-asian:normal;fill:#10b981;fill-opacity:1;stroke-width:1"
     x="254.09395"
     y="120.61472" /><tspan
     sodipodi:role="line"
     style="font-style:normal;font-variant:normal;font-weight:normal;font-stretch:normal;font-size:80px;font-family:'DejaVu Sans';-inkscape-font-specification:'DejaVu Sans, Normal';font-variant-ligatures:normal;font-variant-caps:normal;font-variant-numeric:normal;font-variant-east-asian:normal;fill:#10b981;fill-opacity:1;stroke-width:1"
     x="254.09395"
     y="220.61472"
     id="tspan1859">Mariachi</tspan><tspan
     sodipodi:role="line"
     style="font-style:normal;font-variant:normal;font-weight:normal;font-stretch:normal;font-size:80px;font-family:'DejaVu Sans';-inkscape-font-specification:'DejaVu Sans, Normal';font-variant-ligatures:normal;font-variant-caps:normal;font-variant-numeric:normal;font-variant-east-asian:normal;fill:#10b981;fill-opacity:1;stroke-width:1"
     x="254.09395"
     y="320.61472"
     id="tspan1659">Viajero</tspan></text>

</svg>
