<?xml version="1.0" standalone="no"?>
<!DOCTYPE svg PUBLIC "-//W3C//DTD SVG 20010904//EN"
 "http://www.w3.org/TR/2001/REC-SVG-20010904/DTD/svg10.dtd">
<svg version="1.0" xmlns="http://www.w3.org/2000/svg"
 width="1044.000000pt" height="1044.000000pt" viewBox="0 0 1044.000000 1044.000000"
 preserveAspectRatio="xMidYMid meet">
<metadata>
Created by potrace 1.14, written by Peter Selinger 2001-2017
</metadata>
<g transform="translate(0.000000,1044.000000) scale(0.100000,-0.100000)"
fill="#000000" stroke="none">
<path d="M2387 10123 c-4 -3 -26 -7 -49 -8 -72 -5 -121 -15 -135 -26 -7 -6
-13 -8 -13 -5 0 9 -139 -64 -169 -89 -33 -27 -81 -76 -109 -111 -58 -72 -123
-239 -146 -375 -25 -146 -26 -421 -1 -619 8 -65 14 -115 20 -150 3 -19 8 -46
10 -60 6 -40 16 -93 20 -115 3 -11 10 -42 15 -70 6 -27 13 -61 16 -75 8 -41
64 -261 78 -310 8 -25 26 -85 42 -135 15 -49 27 -96 27 -102 0 -7 5 -13 10
-13 6 0 8 -3 4 -6 -3 -3 -1 -18 5 -33 5 -14 11 -33 13 -41 7 -27 92 -263 130
-360 21 -52 45 -116 55 -141 l17 -46 -61 -35 c-33 -20 -81 -47 -106 -60 -25
-14 -72 -40 -105 -58 -33 -18 -93 -53 -133 -77 -41 -24 -75 -43 -77 -43 -2 0
-46 -25 -99 -55 -52 -30 -97 -55 -100 -55 -2 0 -50 -27 -106 -60 -56 -33 -104
-60 -107 -60 -3 0 -31 -15 -62 -34 -31 -19 -76 -45 -101 -58 -199 -106 -390
-220 -430 -258 -78 -73 -113 -177 -95 -280 14 -78 25 -103 97 -218 l38 -60
-35 -58 c-19 -32 -35 -63 -36 -68 0 -6 -3 -20 -6 -31 -12 -44 -11 -166 2 -209
52 -172 194 -284 372 -291 109 -5 208 31 284 102 l27 25 88 -45 c119 -60 265
-117 339 -133 6 -1 28 -6 50 -12 39 -11 52 -13 125 -26 19 -3 49 -8 65 -11
114 -21 340 -25 430 -8 39 7 108 27 155 43 47 17 90 32 95 33 6 1 15 5 20 9 6
3 50 27 99 53 101 53 126 67 140 78 14 11 90 52 146 80 25 12 47 24 50 27 3 3
70 42 150 87 80 44 162 90 182 102 21 11 68 37 105 57 37 21 90 50 116 66 26
15 52 28 57 28 6 0 10 5 10 10 0 6 6 10 14 10 7 0 25 9 39 20 15 12 28 20 29
19 3 -3 64 31 151 83 26 15 49 28 52 28 2 0 30 15 62 34 32 18 78 45 103 58
25 14 68 38 95 53 307 172 714 400 730 409 11 6 28 17 38 25 9 8 17 11 17 7 0
-3 17 5 38 18 56 37 434 246 444 246 4 0 8 4 8 9 0 5 9 13 21 16 11 4 54 27
95 51 41 24 77 44 80 44 13 0 179 116 225 158 93 83 113 107 171 196 34 53
147 272 155 301 1 6 18 54 37 108 31 88 47 145 62 217 13 66 33 221 35 269 2
38 7 54 18 58 9 3 45 19 81 35 105 47 201 163 205 247 3 49 -14 76 -59 95 -58
25 -100 7 -140 -60 -37 -61 -51 -76 -96 -99 -65 -33 -161 -17 -220 37 -35 33
-59 95 -56 147 8 132 118 209 255 177 28 -6 90 -52 98 -72 8 -21 57 -44 94
-44 23 0 40 9 63 34 52 54 40 105 -43 186 -69 67 -100 83 -199 105 -30 7 -74
10 -98 8 -24 -1 -44 2 -44 7 0 10 -45 105 -71 150 -26 46 -120 131 -167 152
-26 11 -71 22 -100 25 -103 10 -110 7 -722 -337 -179 -100 -347 -195 -375
-210 -27 -15 -77 -43 -110 -62 -33 -19 -67 -37 -75 -41 -8 -4 -24 -13 -35 -20
-91 -54 -225 -127 -234 -127 -6 0 -11 -3 -11 -7 0 -5 -11 -13 -25 -20 -24 -10
-27 -8 -55 32 -17 24 -37 51 -46 59 -8 9 -12 16 -7 16 4 0 3 4 -3 8 -6 4 -42
48 -79 97 -38 50 -76 99 -86 110 -10 11 -52 62 -93 112 -41 51 -80 99 -88 107
-7 7 -35 40 -63 72 -144 168 -374 397 -540 539 -38 33 -72 62 -75 66 -3 3 -23
18 -45 34 -22 17 -42 32 -45 35 -19 19 -91 70 -99 70 -5 0 -11 3 -13 8 -6 14
-144 98 -243 149 -152 78 -288 121 -395 127 -32 2 -62 6 -67 9 -6 4 -13 4 -16
0z m38 -214 c98 -4 216 -39 335 -99 82 -41 224 -129 228 -141 2 -5 8 -9 13 -9
6 0 47 -28 92 -62 44 -35 86 -66 91 -70 12 -8 -10 -27 -64 -55 -19 -10 -37
-21 -40 -24 -3 -3 -20 -11 -37 -18 -18 -8 -33 -16 -33 -20 0 -3 -15 -12 -32
-20 -18 -8 -35 -17 -38 -20 -3 -3 -23 -15 -45 -27 -65 -33 -360 -198 -365
-204 -3 -3 -32 -19 -65 -36 -101 -53 -130 -69 -135 -74 -5 -5 -10 -8 -115 -65
-38 -21 -74 -41 -80 -45 -32 -23 -147 -81 -152 -76 -3 3 -7 20 -9 38 -2 18 -7
65 -11 103 -18 164 -6 491 19 538 5 10 7 21 4 24 -7 7 18 73 57 151 26 52 122
163 141 163 3 0 23 7 43 16 21 8 45 17 53 18 8 2 16 4 18 5 1 2 11 3 21 4 11
0 23 4 27 8 4 4 10 6 13 3 4 -2 34 -5 66 -6z m1111 -712 c93 -95 188 -194 212
-220 l42 -47 -30 -19 c-17 -10 -78 -45 -135 -77 -58 -33 -105 -64 -105 -71 0
-6 -4 -13 -9 -15 -5 -1 -10 -10 -11 -18 -14 -101 75 -161 165 -110 22 13 81
45 130 73 50 27 98 55 109 63 15 10 21 10 30 1 71 -77 296 -376 296 -393 0 -7
-17 -22 -37 -32 -21 -10 -108 -58 -193 -106 -85 -49 -182 -103 -215 -121 -33
-18 -103 -57 -156 -87 -52 -30 -102 -58 -110 -61 -8 -4 -27 -15 -44 -25 -16
-10 -55 -32 -85 -49 -30 -17 -99 -56 -154 -87 -54 -31 -100 -56 -101 -56 -2 0
-45 -24 -97 -54 -117 -67 -182 -103 -233 -130 -22 -12 -41 -24 -43 -28 -2 -5
-7 -8 -12 -8 -5 0 -55 -26 -112 -58 -139 -79 -218 -122 -224 -122 -7 0 -119
277 -129 320 -2 8 -4 16 -5 18 -2 1 -3 5 -5 10 -1 4 -5 14 -8 22 -4 8 -13 36
-21 61 l-13 46 121 68 c66 37 150 84 186 103 36 20 67 38 70 41 3 3 27 17 54
31 27 14 98 53 158 88 60 34 113 62 117 62 5 0 14 7 21 15 7 8 19 15 26 15 8
0 23 8 34 18 11 9 24 16 28 16 4 -1 18 6 32 16 25 17 118 70 175 98 17 9 32
18 35 21 3 3 25 17 50 30 49 26 103 75 93 85 -4 3 -1 6 6 6 7 0 9 5 6 10 -4 6
-9 23 -11 38 -7 37 -42 70 -83 77 -35 6 -52 -2 -296 -140 -27 -16 -63 -35 -80
-43 -16 -8 -41 -23 -55 -32 -14 -9 -61 -36 -105 -60 -44 -24 -89 -48 -100 -54
-11 -6 -22 -14 -25 -17 -3 -4 -25 -16 -50 -28 -25 -12 -61 -31 -80 -43 -38
-22 -80 -46 -175 -98 -33 -18 -64 -36 -70 -40 -5 -4 -40 -24 -78 -44 -48 -26
-69 -33 -72 -24 -9 24 -47 153 -55 188 -5 19 -15 62 -23 95 -9 33 -19 74 -23
90 -4 17 -8 35 -10 40 -2 6 -5 21 -8 35 -3 14 -9 39 -13 55 -4 17 -6 34 -5 39
2 4 -2 14 -8 21 -8 10 3 21 49 50 33 20 63 35 67 35 4 -1 10 2 13 7 3 4 15 13
26 19 81 44 151 83 216 120 42 24 81 44 87 44 7 0 12 4 12 9 0 5 8 11 18 15 9
3 24 10 32 15 29 19 165 95 170 96 3 0 21 10 40 22 19 11 71 41 115 65 44 25
98 55 120 67 22 13 58 33 80 44 22 12 42 24 45 27 3 3 34 21 70 40 36 18 90
48 120 66 30 18 58 33 61 34 3 0 82 -78 175 -173z m2536 -134 c33 -37 66 -85
93 -138 l21 -43 -40 -23 c-23 -13 -59 -34 -81 -47 -22 -12 -56 -30 -75 -40
-19 -9 -37 -20 -40 -23 -3 -4 -36 -23 -75 -43 -38 -20 -88 -47 -110 -61 -22
-13 -67 -38 -100 -56 -89 -47 -98 -53 -113 -67 -7 -7 -18 -10 -23 -7 -5 4 -9
2 -9 -3 0 -5 -22 -19 -50 -32 -27 -13 -50 -28 -50 -33 0 -6 -3 -7 -6 -4 -4 4
-19 -2 -34 -13 -16 -11 -30 -20 -33 -20 -2 0 -64 -34 -136 -75 -73 -41 -137
-75 -142 -75 -5 0 -9 -4 -9 -9 0 -5 -9 -13 -21 -16 -11 -4 -63 -31 -114 -61
-52 -30 -99 -54 -104 -54 -6 0 -11 -5 -11 -11 0 -5 -4 -8 -9 -5 -5 4 -11 2
-13 -2 -1 -5 -48 -33 -102 -63 -55 -30 -120 -66 -145 -80 -25 -14 -75 -43
-111 -63 -36 -20 -76 -42 -90 -49 -14 -6 -27 -14 -30 -18 -3 -3 -23 -15 -45
-26 -22 -11 -89 -48 -150 -83 -60 -34 -144 -80 -185 -103 -41 -22 -77 -43 -80
-46 -3 -3 -21 -14 -40 -23 -35 -17 -77 -41 -222 -124 -42 -24 -82 -44 -88 -44
-5 0 -10 -4 -10 -8 0 -4 -15 -15 -32 -23 -36 -17 -361 -197 -446 -248 -29 -17
-55 -31 -57 -31 -3 0 -39 -20 -81 -45 -41 -25 -77 -45 -78 -45 -2 0 -99 -54
-216 -120 -117 -66 -216 -120 -221 -120 -4 0 -9 -3 -11 -7 -1 -5 -16 -15 -33
-24 -90 -46 -161 -85 -165 -90 -9 -10 -155 -88 -161 -86 -4 1 -15 -5 -25 -14
-11 -9 -39 -27 -64 -40 -25 -13 -47 -26 -50 -29 -3 -3 -18 -12 -35 -20 -33
-16 -171 -94 -195 -110 -8 -6 -24 -14 -35 -19 -11 -5 -49 -26 -85 -46 -36 -21
-90 -51 -120 -68 -30 -16 -68 -38 -85 -47 -16 -10 -52 -30 -80 -45 -27 -16
-97 -54 -154 -87 -58 -32 -107 -58 -109 -58 -19 0 -102 164 -102 202 0 41 25
84 57 101 16 8 107 59 203 114 96 54 182 102 190 106 8 4 22 11 30 17 40 27
371 210 380 210 6 0 10 5 10 10 0 6 5 10 10 10 6 0 45 20 88 44 42 24 93 52
112 63 19 11 55 31 80 45 148 83 383 215 430 242 67 37 107 59 194 109 37 20
71 37 76 37 6 0 10 4 10 8 0 4 12 13 28 19 15 7 45 23 68 36 22 14 71 42 110
63 38 21 91 50 117 66 26 15 50 28 52 28 3 0 39 20 81 45 41 25 79 45 83 45 4
0 13 6 19 13 7 6 16 12 20 12 4 0 39 19 77 41 39 23 90 52 115 66 25 14 106
59 181 101 74 43 141 77 147 77 7 0 12 4 12 9 0 5 17 17 38 27 20 9 70 37 111
61 41 24 80 45 85 46 6 1 13 5 16 8 3 3 25 17 50 31 91 50 157 87 254 142 54
31 102 56 107 56 5 0 9 3 9 8 0 4 25 18 55 31 30 14 55 28 55 33 0 4 4 8 10 8
5 0 76 38 157 84 82 46 168 94 193 108 25 14 155 87 290 163 135 75 265 148
290 162 25 13 61 34 80 45 19 12 60 35 90 51 30 17 98 54 150 84 114 64 161
70 202 26z m-36 -511 c-6 -10 11 -98 26 -132 40 -95 112 -176 187 -213 25 -12
49 -26 53 -32 8 -10 2 -135 -7 -165 -2 -8 -7 -37 -10 -64 -3 -27 -7 -52 -10
-56 -3 -4 -7 -25 -11 -46 -7 -46 -56 -196 -84 -261 -43 -97 -124 -254 -142
-273 -10 -10 -18 -23 -18 -27 0 -14 -122 -127 -190 -175 -54 -38 -214 -134
-271 -161 -8 -4 -41 -23 -74 -42 -33 -19 -76 -43 -95 -52 -19 -10 -37 -21 -40
-24 -3 -3 -39 -24 -80 -46 -41 -22 -124 -68 -183 -102 -60 -33 -113 -61 -117
-61 -5 0 -10 -3 -12 -7 -3 -8 -29 -23 -123 -72 -27 -14 -52 -28 -55 -31 -3 -3
-18 -12 -35 -20 -16 -8 -32 -17 -35 -20 -3 -3 -31 -18 -62 -35 -32 -16 -58
-34 -58 -39 0 -5 -2 -7 -5 -4 -5 5 -511 -275 -621 -343 -17 -10 -34 -16 -37
-12 -4 3 -7 1 -7 -5 0 -7 -7 -12 -15 -12 -8 0 -15 -4 -15 -10 0 -5 -6 -10 -13
-10 -7 0 -29 -11 -48 -25 -20 -13 -39 -21 -43 -18 -3 4 -6 1 -6 -5 0 -7 -4
-12 -9 -12 -5 0 -36 -15 -68 -34 -113 -65 -148 -84 -157 -84 -5 0 -12 -4 -15
-9 -3 -4 -26 -19 -51 -32 -25 -14 -48 -29 -51 -34 -3 -5 -9 -8 -13 -7 -4 0
-66 -32 -139 -73 -73 -41 -154 -87 -182 -103 -27 -15 -116 -64 -196 -110 -210
-119 -321 -167 -451 -193 -56 -12 -318 -12 -318 0 0 3 -15 6 -32 7 -18 1 -44
4 -58 8 -14 3 -34 7 -45 9 -32 6 -60 13 -101 24 -21 6 -40 8 -43 6 -2 -3 -9
-1 -15 4 -6 4 -42 19 -81 32 -38 13 -114 45 -167 71 l-96 47 0 79 c0 84 -10
129 -45 202 -23 46 -119 150 -140 150 -7 0 19 18 56 40 38 22 73 40 78 40 5 0
9 5 9 11 0 5 4 8 9 4 5 -3 12 -1 15 4 11 17 83 49 83 37 7 -98 50 -199 118
-268 25 -26 45 -44 45 -41 0 3 8 -1 18 -10 50 -45 178 -76 270 -65 104 12 187
60 275 158 21 23 55 100 68 153 12 51 7 183 -10 214 -5 10 -19 40 -32 66 -21
44 -73 103 -124 141 -18 14 -18 15 -2 16 9 0 17 5 17 10 0 6 4 10 8 10 9 0
214 110 222 120 5 5 58 30 65 30 2 0 2 -8 1 -17 -4 -25 22 -121 45 -166 19
-35 88 -112 134 -147 37 -29 139 -60 204 -64 110 -6 210 32 294 109 26 25 47
47 47 51 0 3 8 18 19 32 69 99 75 288 12 393 -12 19 -24 40 -28 48 -10 22 -77
87 -98 95 -28 10 -23 13 157 112 37 20 71 36 75 37 4 0 9 -15 10 -34 8 -132
97 -257 231 -320 54 -26 81 -33 145 -35 45 -2 97 3 122 11 25 7 45 11 45 7 0
-3 9 3 20 13 11 10 20 15 20 11 0 -11 72 44 108 83 28 31 82 118 88 144 1 4 2
8 4 10 4 6 10 46 14 100 7 113 -45 240 -133 318 l-54 48 47 22 c25 13 46 27
46 31 0 4 6 8 13 8 7 0 29 11 49 25 20 14 42 25 48 25 6 0 18 7 27 15 19 20
20 20 26 -35 15 -127 99 -246 217 -307 61 -31 69 -33 120 -39 19 -3 43 -6 52
-8 14 -3 40 1 135 20 13 2 38 13 55 24 18 11 39 23 47 27 8 3 29 20 46 37 135
131 165 321 79 485 -26 50 -91 124 -117 134 -33 12 -28 17 88 82 127 72 208
115 211 112 1 -1 5 -25 8 -52 19 -190 212 -350 411 -340 118 5 244 69 304 154
54 76 75 142 77 240 1 52 -1 102 -5 110 -49 104 -74 144 -118 187 -29 28 -53
53 -53 55 0 2 30 20 67 39 37 19 72 39 78 43 17 14 89 55 98 56 5 1 6 -3 3 -7z
m-386 -300 c60 -24 118 -115 115 -182 -4 -73 -60 -158 -115 -174 -68 -20 -90
-23 -90 -14 0 5 -5 6 -10 3 -33 -20 -160 72 -160 115 0 10 -4 21 -9 24 -15 10
-4 101 18 144 22 43 64 78 109 93 32 10 107 6 142 -9z m-927 -532 c138 -69
135 -274 -6 -346 -32 -17 -113 -26 -132 -15 -5 3 -16 6 -23 7 -27 4 -83 56
-103 95 -86 169 93 344 264 259z m-866 -488 c87 -45 125 -155 85 -245 -21 -47
-56 -90 -66 -79 -3 3 -6 1 -6 -5 0 -16 -57 -33 -110 -33 -153 0 -243 176 -154
302 59 84 158 108 251 60z m-886 -476 c39 -17 90 -68 107 -109 14 -34 16 -106
2 -141 -15 -40 -61 -87 -105 -107 -77 -35 -155 -19 -219 46 -23 23 -43 49 -44
56 0 8 -3 31 -6 53 -10 61 10 116 59 163 24 23 54 43 67 46 49 9 107 6 139 -7z
m-927 -531 c117 -56 146 -210 57 -305 -79 -85 -190 -88 -279 -6 -54 49 -71
131 -42 209 17 44 64 95 82 90 5 -2 8 1 8 7 0 13 58 27 102 24 20 -1 52 -10
72 -19z m-894 -477 c88 -28 145 -114 134 -204 -3 -27 -10 -57 -16 -67 -80
-150 -287 -143 -355 13 -22 50 -23 88 -3 139 39 101 138 151 240 119z"/>
<path d="M7335 7845 c-91 -19 -102 -23 -160 -44 -141 -53 -331 -161 -515 -294
-47 -33 -87 -63 -90 -66 -3 -4 -34 -28 -70 -56 -83 -64 -95 -74 -136 -110 -18
-16 -56 -50 -85 -75 -68 -59 -228 -220 -304 -306 -33 -37 -72 -80 -87 -96 -14
-15 -23 -28 -20 -28 4 0 2 -4 -3 -8 -31 -22 -207 -270 -252 -354 -11 -21 -22
-36 -24 -34 -9 10 -131 20 -224 19 -360 -2 -699 -221 -857 -553 -35 -75 -62
-150 -73 -202 -19 -101 -15 -95 -68 -103 -23 -4 -51 -9 -62 -12 -11 -3 -38 -9
-60 -13 -39 -9 -279 -65 -320 -76 -11 -3 -31 -7 -45 -10 -14 -3 -40 -9 -57
-15 -18 -6 -37 -8 -43 -4 -5 3 -10 2 -10 -3 0 -8 -67 -27 -78 -23 -1 1 -15 -5
-31 -13 -16 -9 -31 -13 -33 -10 -3 3 -16 0 -29 -5 -13 -5 -49 -17 -79 -25 -95
-27 -293 -87 -352 -107 -31 -11 -65 -22 -75 -24 -17 -3 -211 -69 -243 -82 -8
-3 -19 -5 -24 -4 -4 1 -13 -2 -20 -7 -6 -5 -45 -21 -86 -35 -41 -14 -118 -42
-170 -62 -52 -20 -99 -38 -105 -39 -5 -1 -19 -7 -30 -13 -17 -9 -115 -44 -137
-49 -5 -1 -9 -3 -10 -4 -2 -1 -19 -3 -38 -5 -38 -3 -131 -14 -170 -20 -14 -2
-47 -6 -75 -10 -86 -9 -139 -16 -175 -21 -19 -3 -51 -7 -70 -9 -19 -3 -55 -7
-80 -10 -25 -4 -65 -8 -90 -11 -25 -3 -56 -6 -70 -9 -14 -2 -50 -6 -80 -10
-30 -3 -66 -8 -80 -10 -23 -4 -116 -16 -150 -19 -9 -1 -21 -5 -28 -10 -6 -4
-12 -5 -12 -2 0 10 -115 -35 -176 -69 -74 -42 -159 -117 -200 -177 -16 -24
-32 -45 -35 -48 -12 -10 -59 -113 -54 -118 2 -3 1 -10 -4 -16 -14 -17 -30 -85
-36 -155 -3 -35 -8 -67 -11 -72 -3 -5 -2 -9 3 -9 4 0 9 -30 10 -68 1 -37 4
-96 7 -132 3 -36 8 -103 11 -150 7 -104 12 -183 19 -275 3 -38 8 -106 11 -150
13 -198 26 -303 43 -329 3 -6 7 -17 8 -24 5 -30 87 -152 133 -198 77 -76 186
-136 279 -153 30 -5 36 -13 63 -76 80 -190 134 -241 267 -252 114 -10 217 51
272 162 14 28 29 53 33 56 5 3 8 8 7 10 -1 2 4 16 10 31 13 27 13 27 111 25
55 -1 99 -4 99 -7 0 -3 46 -5 103 -5 125 0 157 -4 157 -19 0 -17 52 -136 77
-176 65 -104 189 -150 303 -112 64 21 102 49 147 107 11 14 61 105 75 138 11
23 24 31 49 29 7 -1 254 -13 344 -17 33 -1 63 -3 66 -4 3 0 15 -25 28 -54 12
-28 33 -75 46 -104 36 -77 11 -78 -47 -3 -76 101 -142 146 -230 156 -89 10
-158 -15 -224 -83 -30 -30 -53 -58 -50 -61 3 -2 -1 -17 -10 -33 -8 -16 -14
-31 -13 -34 0 -3 -3 -24 -7 -48 -4 -23 -8 -51 -9 -62 -7 -54 -16 -62 -93 -79
-12 -3 -26 -7 -30 -10 -5 -3 -19 -7 -33 -10 -13 -2 -82 -20 -154 -40 l-130
-36 -38 40 c-21 22 -36 40 -33 40 17 0 -96 95 -134 114 -44 21 -129 27 -187
13 -97 -24 -178 -125 -196 -247 -3 -19 -9 -56 -13 -82 -3 -27 -9 -48 -11 -48
-2 0 -88 -23 -191 -51 -103 -28 -191 -52 -197 -53 -5 -1 -16 -5 -22 -9 -7 -5
-13 -6 -13 -3 0 9 -130 -42 -178 -70 -45 -26 -153 -128 -180 -169 -33 -53 -73
-149 -85 -206 -13 -63 -14 -186 -2 -264 3 -22 6 -58 7 -80 1 -22 3 -44 6 -49
2 -4 6 -31 9 -60 8 -100 11 -121 18 -151 10 -38 52 -124 73 -147 8 -10 12 -18
9 -18 -3 0 17 -22 45 -49 97 -94 196 -131 334 -125 74 3 149 10 149 14 0 3 82
18 145 26 19 3 85 13 145 24 61 11 124 22 140 25 17 2 40 7 51 9 12 2 39 7 60
10 22 4 100 17 174 31 223 40 242 43 295 50 17 2 30 4 30 5 0 2 35 8 85 15 25
3 52 8 60 10 8 2 30 7 48 10 17 3 47 7 65 10 17 3 68 12 112 20 44 8 95 17
113 20 17 3 47 8 65 11 17 3 41 7 52 8 11 2 34 6 50 9 17 4 44 9 60 11 29 5
242 41 298 51 15 3 53 9 85 15 31 6 68 12 82 15 13 3 40 7 60 10 20 3 47 8 60
11 14 3 41 7 60 10 19 2 46 7 60 10 23 4 52 9 120 19 14 2 25 4 25 5 0 1 9 3
20 5 11 1 36 5 55 8 55 9 143 24 180 32 14 3 41 7 60 10 19 3 46 7 60 10 14 3
39 7 55 10 17 3 44 7 60 10 17 3 46 8 65 11 19 2 69 11 110 19 85 16 307 55
403 70 17 3 43 7 57 10 14 3 39 7 55 9 76 12 103 17 150 26 28 5 66 12 85 15
85 14 129 22 170 30 13 2 42 7 65 10 22 4 69 13 105 21 36 9 74 17 85 20 15 3
147 45 270 88 6 1 23 8 38 14 16 7 30 12 32 12 3 0 38 16 79 35 41 19 80 35
86 35 5 0 10 4 10 8 0 4 14 13 31 19 35 14 269 152 284 168 6 6 28 24 50 40
22 16 46 35 53 42 19 18 39 16 71 -6 57 -41 301 -142 376 -157 6 -1 30 -8 55
-15 25 -7 47 -13 50 -14 3 0 23 -5 45 -10 22 -4 45 -9 50 -11 28 -7 120 -24
162 -29 26 -4 59 -8 73 -10 140 -23 396 -38 630 -38 208 0 456 13 545 28 56 9
159 37 192 51 21 9 43 17 48 18 41 9 167 97 210 148 35 41 88 155 81 174 -3 7
-1 16 3 19 10 5 7 134 -4 180 -4 17 -8 35 -9 42 -1 7 -5 16 -9 19 -4 4 -7 14
-7 22 0 36 -148 297 -198 350 -7 8 -25 30 -40 50 -15 21 -43 54 -62 76 -19 21
-46 51 -60 66 -14 16 -32 36 -41 46 -44 52 -270 262 -363 338 -58 48 -99 86
-95 90 2 2 38 18 79 36 84 37 267 127 349 172 135 75 322 195 341 219 3 3 12
10 22 15 54 30 229 200 276 269 15 22 31 43 37 47 5 4 6 8 1 8 -5 0 -2 8 6 18
30 36 78 192 59 192 -3 0 1 5 9 10 8 5 11 10 5 10 -5 0 -9 18 -9 41 2 53 -25
133 -69 204 -24 40 -144 152 -200 188 -129 83 -405 202 -515 223 -7 1 -36 9
-65 18 -28 8 -65 18 -82 22 -16 4 -32 8 -35 9 -3 0 -23 5 -45 10 -22 5 -42 9
-45 10 -27 7 -97 18 -104 16 -12 -3 1 13 82 96 119 122 202 216 262 293 19 25
37 47 40 50 3 3 17 21 30 40 13 19 27 37 30 40 22 20 132 204 165 276 29 63
66 164 60 164 -1 0 3 19 10 43 11 38 13 174 2 217 -48 191 -230 321 -507 364
-171 27 -460 27 -660 1 -19 -3 -55 -7 -80 -10 -46 -6 -155 -22 -200 -30 -100
-19 -103 -19 -97 1 4 10 8 30 11 44 2 14 14 63 25 110 29 122 64 328 76 446 4
32 8 70 11 84 6 32 6 319 0 346 -2 12 -7 45 -11 74 -21 162 -99 313 -205 392
-83 63 -231 89 -355 63z m198 -285 c51 -35 90 -127 103 -245 8 -74 11 -235 4
-235 -3 0 -5 -26 -6 -58 0 -60 -10 -170 -19 -212 -2 -13 -7 -42 -10 -65 -3
-22 -11 -65 -17 -95 -6 -30 -12 -62 -14 -70 -1 -8 -5 -26 -8 -40 -3 -14 -8
-34 -11 -45 -6 -30 -12 -55 -24 -105 -7 -25 -13 -52 -15 -60 -2 -8 -10 -35
-17 -60 -16 -58 -19 -67 -19 -75 -1 -3 -8 -24 -16 -47 -9 -24 -17 -50 -19 -58
-2 -8 -15 -48 -29 -89 -39 -112 -34 -153 24 -208 22 -21 32 -23 88 -20 55 4
67 9 91 36 15 17 38 62 51 101 15 45 28 69 36 66 7 -3 15 -2 18 2 4 3 12 7 19
8 22 3 72 13 93 18 31 6 95 18 124 21 14 2 25 4 25 5 0 1 14 3 30 5 17 2 68 8
115 14 143 19 239 25 395 24 231 0 336 -17 440 -70 91 -46 119 -109 94 -218
-12 -54 -92 -230 -115 -253 -8 -7 -14 -17 -14 -22 0 -10 -157 -227 -186 -257
-10 -11 -44 -48 -74 -83 -134 -155 -368 -376 -569 -538 -64 -51 -124 -100
-134 -108 -18 -15 -26 -7 -25 26 1 24 -12 143 -18 170 -3 14 -8 39 -10 55 -12
66 -68 215 -116 305 -27 52 -53 97 -57 100 -3 3 -15 19 -25 35 -88 138 -292
314 -456 392 -184 87 -307 121 -480 129 -57 3 -107 6 -110 6 -3 0 -7 0 -10 -2
-3 -1 -36 -3 -75 -5 -38 -3 -111 -15 -162 -28 l-92 -23 -12 31 c-50 134 -116
253 -185 330 -14 17 -31 37 -38 45 -20 28 -130 117 -189 154 -50 32 -56 39
-47 56 15 28 102 152 117 168 7 7 13 16 13 20 0 4 13 21 28 38 15 17 38 46 52
64 75 98 240 274 377 400 287 267 734 554 910 586 15 3 29 7 31 8 1 2 27 3 56
2 38 -1 62 -8 89 -26z m-2023 -1444 c97 -18 208 -65 290 -123 58 -42 159 -153
196 -215 19 -33 34 -63 34 -67 0 -5 -75 -9 -167 -9 -154 0 -317 -7 -433 -17
-25 -2 -79 -7 -120 -10 -41 -3 -88 -8 -105 -10 -16 -2 -59 -6 -95 -10 -36 -4
-79 -10 -97 -15 -20 -5 -35 -4 -42 3 -7 7 -11 7 -11 1 0 -6 -6 -11 -12 -11
-17 0 -107 -13 -133 -18 -11 -3 -41 -7 -67 -10 l-48 -5 19 50 c10 27 16 51 13
54 -3 4 0 6 6 6 6 0 14 10 18 23 10 33 82 137 123 177 44 43 126 110 135 110
3 0 23 10 44 23 111 67 307 99 452 73z m1375 -659 c11 -3 20 -6 20 -7 0 -1 11
-3 25 -6 95 -17 247 -88 349 -164 206 -152 352 -398 388 -650 7 -49 6 -229 -1
-265 -4 -16 -9 -46 -12 -65 -18 -112 -125 -338 -194 -410 -8 -9 -29 -31 -45
-50 -17 -19 -55 -55 -85 -80 -30 -25 -57 -48 -60 -51 -3 -3 -37 -24 -75 -47
-120 -69 -269 -119 -379 -127 -28 -2 -53 -4 -56 -5 -10 -3 -135 1 -170 6 -19
3 -48 6 -65 8 -85 10 -273 89 -372 157 -47 32 -130 105 -162 142 -9 10 -24 28
-35 40 -26 30 -99 144 -124 193 -19 38 -59 147 -68 187 -2 9 -6 27 -9 40 -3
12 -8 47 -11 77 -3 30 -7 64 -9 75 -4 28 11 52 35 58 18 5 20 0 21 -46 2 -150
55 -330 114 -389 62 -62 179 -31 213 57 14 37 11 60 -23 155 -22 59 -28 97
-31 180 -5 147 11 210 67 265 53 50 81 84 106 122 9 15 21 30 25 33 3 3 20 33
36 68 39 81 76 110 201 154 68 23 133 32 226 31 267 -4 492 -172 591 -438 18
-50 32 -136 32 -208 0 -66 -5 -100 -32 -207 -7 -27 -41 -95 -51 -102 -5 -4 -7
-8 -2 -8 11 0 -48 -79 -101 -134 -71 -73 -198 -149 -287 -171 -16 -4 -39 -9
-50 -12 -11 -2 -55 -6 -97 -8 -77 -3 -152 9 -257 39 -47 13 -59 13 -87 1 -36
-15 -76 -52 -83 -75 -19 -72 4 -133 64 -167 97 -54 324 -82 485 -59 75 11 205
54 263 88 26 15 50 28 54 28 15 0 137 95 188 147 111 112 210 290 241 434 19
90 25 251 12 344 -8 56 -34 160 -47 190 -6 11 -18 38 -27 60 -22 49 -83 149
-95 153 -5 2 -9 9 -9 15 0 12 -84 103 -136 147 -58 49 -184 129 -214 135 -3 1
-21 8 -41 17 -32 14 -139 44 -199 55 -14 3 -70 5 -125 5 -126 1 -195 -8 -275
-36 -43 -15 -54 -11 -56 21 -1 22 15 29 141 58 48 12 317 13 360 2z m-771 -45
c3 -9 4 -53 2 -97 -9 -227 -117 -385 -346 -507 -68 -36 -189 -86 -218 -91 -9
-1 -23 -6 -30 -11 -7 -4 -19 -5 -27 -2 -8 3 -15 2 -15 -2 0 -7 -63 -24 -140
-37 -14 -3 -36 -7 -50 -10 -52 -10 -88 -15 -207 -29 -92 -11 -199 -18 -345
-21 -86 -2 -162 -6 -167 -10 -6 -3 -16 -3 -22 1 -7 4 -77 8 -158 10 -80 2
-180 5 -221 8 -41 3 -111 8 -155 11 -44 3 -102 8 -130 11 -27 3 -70 7 -95 10
-53 5 -121 13 -171 20 -20 2 -56 7 -80 9 -86 9 -185 23 -219 30 -14 3 -43 8
-65 11 -22 2 -53 7 -70 10 -16 3 -41 7 -55 9 -45 7 -215 37 -230 40 -8 2 -36
7 -62 11 -27 3 -48 10 -48 15 0 5 2 9 3 9 2 0 44 14 93 31 49 17 96 33 104 34
8 2 15 4 15 5 0 1 7 3 15 6 8 2 89 29 180 59 91 30 172 57 180 59 8 1 22 6 30
9 23 8 192 58 216 63 12 2 51 13 85 23 35 11 77 22 92 25 15 3 54 12 85 21 31
10 64 18 72 20 12 3 97 23 170 40 129 31 328 74 374 80 15 3 35 7 45 9 9 3 39
8 66 12 28 3 58 8 68 10 9 2 26 6 36 8 11 3 41 7 68 11 26 4 59 9 73 11 101
15 205 28 300 39 14 1 54 6 90 10 36 4 79 9 95 10 17 2 82 7 145 10 63 4 117
9 118 10 2 2 116 4 252 4 225 0 250 -2 254 -17z m-3639 -823 c28 -6 66 -15 85
-19 88 -20 182 -40 207 -45 16 -3 39 -7 53 -10 21 -4 134 -24 230 -41 14 -2
41 -6 60 -8 19 -3 35 -5 35 -6 0 -2 33 -8 78 -13 21 -3 41 -8 45 -12 4 -4 8
-46 9 -93 2 -137 13 -209 49 -314 14 -40 26 -77 27 -83 5 -16 59 -119 66 -125
3 -3 14 -21 25 -40 10 -19 24 -39 30 -45 7 -5 20 -21 29 -35 48 -70 168 -174
272 -236 50 -30 170 -82 235 -103 107 -33 288 -44 420 -26 255 34 515 192 672
406 48 67 98 154 98 173 0 8 7 19 15 26 9 7 14 19 11 27 -3 7 -1 13 4 13 6 0
9 3 9 8 -1 4 0 9 1 12 1 3 3 12 5 20 2 8 11 40 20 70 15 55 28 153 29 240 1
25 5 48 11 52 5 4 32 10 60 14 27 4 52 8 55 9 3 0 10 3 15 7 19 12 35 -7 39
-47 16 -151 61 -298 128 -425 82 -158 148 -242 296 -381 41 -38 110 -89 121
-89 6 0 11 -4 11 -8 0 -8 189 -106 235 -122 11 -4 33 -13 48 -19 25 -10 50
-16 142 -37 20 -5 42 -8 125 -19 48 -7 195 -7 245 -1 83 11 132 19 150 26 11
4 23 8 28 9 17 2 63 13 77 18 8 3 22 7 30 9 8 2 23 7 35 13 57 28 119 51 124
46 6 -7 11 -30 16 -75 2 -19 6 -51 9 -70 14 -88 19 -165 18 -285 0 -111 -7
-220 -13 -220 0 0 -3 -13 -4 -30 -2 -16 -6 -43 -10 -60 -4 -16 -8 -39 -10 -50
-2 -11 -4 -20 -5 -20 -1 0 -3 -7 -5 -15 -1 -8 -9 -35 -16 -60 -7 -25 -13 -48
-15 -52 -1 -5 -3 -10 -4 -13 -1 -3 -3 -8 -5 -12 -14 -53 -119 -258 -157 -308
-96 -126 -131 -167 -197 -229 -24 -23 -53 -50 -65 -61 -12 -11 -39 -34 -61
-50 -22 -17 -42 -33 -45 -36 -3 -3 -20 -14 -37 -24 -18 -11 -33 -23 -33 -27 0
-4 -4 -8 -10 -8 -5 0 -36 -17 -67 -37 -69 -44 -279 -149 -317 -159 -14 -3 -29
-10 -32 -15 -3 -5 -10 -7 -15 -4 -5 4 -9 1 -9 -4 0 -6 -3 -10 -7 -9 -5 1 -60
-15 -123 -35 -165 -51 -205 -62 -330 -82 -25 -4 -54 -9 -65 -11 -11 -3 -36 -7
-55 -10 -19 -3 -42 -7 -50 -9 -8 -3 -33 -7 -55 -10 -38 -5 -54 -8 -115 -20
-14 -3 -41 -7 -60 -10 -19 -3 -45 -7 -56 -9 -30 -6 -95 -17 -124 -21 -14 -2
-50 -8 -80 -14 -30 -5 -71 -12 -90 -15 -19 -4 -71 -13 -115 -21 -118 -21 -147
-26 -177 -31 -63 -9 -192 -32 -228 -39 -14 -3 -41 -8 -60 -11 -19 -3 -60 -10
-90 -15 -30 -6 -66 -12 -80 -14 -39 -6 -92 -15 -120 -20 -14 -3 -38 -7 -55
-10 -16 -2 -52 -8 -80 -14 -27 -5 -70 -12 -94 -16 -23 -3 -54 -10 -68 -16 -17
-6 -22 -6 -17 3 4 6 3 8 -4 4 -12 -7 -90 -24 -137 -30 -16 -2 -68 -11 -115
-19 -91 -17 -140 -25 -180 -32 -27 -4 -187 -32 -235 -40 -16 -3 -66 -12 -110
-20 -44 -8 -96 -17 -115 -19 -32 -5 -48 -7 -120 -21 -14 -3 -42 -8 -64 -11
-21 -3 -48 -8 -60 -10 -11 -3 -34 -7 -51 -9 -16 -3 -41 -7 -55 -10 -40 -8 -74
-14 -111 -20 -19 -2 -47 -7 -64 -10 -16 -3 -43 -7 -60 -10 -16 -3 -40 -7 -51
-9 -12 -2 -37 -7 -55 -10 -19 -3 -61 -10 -94 -16 -33 -6 -71 -13 -85 -15 -30
-5 -301 -51 -350 -60 -19 -3 -44 -8 -55 -10 -69 -11 -93 -15 -115 -20 -60 -14
-151 -16 -184 -5 -50 16 -93 64 -105 119 -22 97 -23 109 -1 121 11 6 20 8 20
5 0 -4 6 -3 13 2 6 4 17 8 22 9 6 1 156 44 335 95 179 50 333 92 343 93 9 0
17 3 17 6 0 4 6 7 13 7 10 0 142 36 437 120 30 8 62 17 70 18 8 2 15 4 15 5 0
1 7 3 15 5 8 2 65 17 125 34 61 17 189 53 285 80 96 27 236 66 310 86 74 20
142 39 150 42 18 7 27 10 58 17 12 3 32 9 45 12 12 3 34 8 50 11 15 3 27 10
27 15 0 5 4 7 9 4 5 -4 22 -1 38 5 15 7 35 13 43 14 14 2 117 30 330 90 52 15
100 28 105 29 6 1 15 4 20 8 6 3 28 10 50 14 22 5 42 9 45 9 3 1 37 11 75 23
39 12 81 24 95 26 14 3 48 12 75 21 28 9 61 18 74 21 12 3 84 23 159 44 l136
40 87 -29 c158 -54 331 -57 490 -10 258 75 471 289 544 544 9 33 20 67 24 75
9 18 6 284 -3 324 -10 43 -45 147 -58 176 -28 58 -103 166 -151 217 -50 53
-187 160 -187 147 0 -4 -8 0 -17 8 -10 8 -31 20 -48 26 -16 6 -43 17 -60 23
-120 47 -304 59 -446 30 -128 -28 -274 -100 -358 -179 -36 -32 -37 -33 -111
-28 -134 10 -386 24 -535 31 -55 3 -131 7 -170 9 -109 8 -270 17 -380 22 -55
3 -129 7 -165 9 -36 2 -111 6 -168 9 -56 3 -107 8 -112 11 -6 3 -10 1 -10 -5
0 -6 -5 -8 -12 -4 -6 4 -43 9 -82 11 -39 2 -109 5 -156 8 -47 2 -131 6 -188 9
-111 6 -233 13 -377 22 -146 8 -233 13 -350 19 -60 2 -148 7 -195 10 -47 3
-119 8 -160 10 -41 2 -127 7 -190 11 -63 3 -132 7 -152 7 -21 1 -38 4 -38 7 0
3 21 16 46 30 89 47 182 158 214 255 31 94 31 198 2 290 -34 104 -134 218
-240 274 -55 29 -77 36 -131 45 -36 6 -16 51 54 122 43 43 105 90 105 78 0 -3
6 -2 13 4 15 12 79 30 135 37 23 3 60 7 82 10 22 3 59 7 83 10 23 3 58 7 77
10 63 9 124 16 165 20 22 3 56 7 75 10 52 8 141 17 175 19 27 1 30 -2 32 -29
5 -63 12 -142 17 -192 3 -29 8 -77 11 -105 16 -166 18 -195 19 -218 1 -14 6
-28 11 -32 6 -5 5 -8 -3 -8 -9 0 -10 -5 -4 -17 5 -10 10 -37 10 -60 0 -24 1
-44 2 -45 1 -2 3 -21 4 -43 1 -22 4 -44 7 -50 3 -5 5 -27 4 -47 0 -21 3 -38 7
-38 4 0 5 -8 3 -18 -4 -21 32 -65 71 -85 84 -44 197 36 189 133 -3 41 -14 153
-21 225 -3 28 -7 70 -9 95 -2 25 -7 72 -10 105 -3 33 -7 80 -10 105 -2 25 -4
45 -5 45 -1 0 -3 23 -5 50 -2 28 -7 75 -9 105 -12 123 -15 172 -10 167 3 -3
17 -2 32 2 17 5 51 1 92 -11 36 -10 88 -24 115 -29z m5984 -84 c13 -2 45 -8
70 -12 25 -4 48 -8 51 -8 11 -3 76 -16 90 -19 8 -1 24 -5 35 -9 11 -3 36 -8
56 -11 20 -3 49 -10 65 -16 16 -6 29 -11 29 -10 0 3 58 -11 75 -17 8 -3 21 -7
29 -9 55 -11 226 -78 321 -126 167 -84 260 -173 260 -251 0 -30 -39 -127 -51
-127 -5 0 -9 -5 -9 -12 0 -34 -348 -328 -388 -328 -6 0 -12 -4 -14 -8 -4 -11
-193 -119 -338 -194 -110 -56 -328 -154 -415 -186 -16 -6 -43 -17 -60 -23 -16
-7 -36 -13 -43 -15 -8 -1 -21 -6 -30 -10 -9 -4 -23 -8 -30 -10 -8 -1 -21 -6
-30 -10 -9 -4 -21 -8 -27 -10 -98 -26 -215 -54 -244 -59 -20 -3 -48 -8 -61
-10 -14 -3 -60 -8 -103 -10 -44 -3 -83 -7 -87 -10 -14 -9 -31 23 -29 56 4 67
-49 464 -61 464 -1 0 -3 10 -4 23 -2 15 8 32 28 50 49 45 166 176 166 188 0 3
11 20 24 37 39 51 102 176 131 260 28 77 29 79 99 124 39 25 73 49 74 54 2 5
8 9 13 9 9 0 102 66 135 95 7 6 24 19 40 30 15 11 38 29 50 40 13 11 38 31 55
45 18 14 37 30 43 36 6 7 22 10 36 7 14 -2 36 -6 49 -8z m-4759 -121 c25 -3
68 -7 95 -10 42 -4 98 -9 127 -13 4 -1 7 -22 7 -48 0 -27 3 -59 5 -73 3 -14 9
-38 12 -55 7 -32 45 -110 66 -135 69 -80 214 -121 353 -98 51 9 155 54 155 68
0 5 8 11 18 14 22 7 79 91 93 136 5 19 12 62 14 94 3 32 6 61 8 63 3 3 141 10
317 16 l55 2 -1 -45 c-1 -46 -8 -111 -20 -165 -3 -16 -7 -34 -8 -40 -1 -5 -4
-14 -8 -20 -3 -5 -11 -28 -17 -50 -21 -80 -161 -275 -197 -275 -8 0 -14 -4
-14 -10 0 -15 -127 -81 -203 -105 -99 -31 -135 -37 -262 -38 -106 -1 -245 22
-270 44 -5 5 -17 9 -27 9 -10 0 -18 5 -18 10 0 6 -9 10 -20 10 -11 0 -20 5
-20 10 0 6 -9 10 -20 10 -11 0 -20 4 -20 8 0 5 -12 15 -27 22 -36 18 -203 187
-203 206 0 8 -4 14 -10 14 -5 0 -10 7 -10 15 0 8 -4 15 -10 15 -5 0 -10 5 -10
10 0 6 -8 29 -19 53 -23 52 -37 93 -46 132 -15 68 -24 188 -17 218 5 19 -1 19
152 1z m598 -47 c40 -3 76 -8 79 -11 3 -3 1 -23 -5 -43 -20 -68 -89 -89 -142
-44 -29 24 -35 44 -31 93 0 10 7 15 14 13 6 -2 45 -6 85 -8z m-3349 -349 c11
-11 12 -10 6 1 -9 16 45 -19 83 -53 31 -27 53 -77 57 -123 2 -37 -11 -93 -25
-103 -3 -3 -9 -12 -12 -21 -6 -15 -93 -79 -108 -79 -4 0 -7 6 -7 13 0 6 -4 53
-7 102 -4 50 -9 124 -11 166 -2 42 -5 80 -6 85 -5 26 9 32 30 12z m4379 -884
c66 -24 125 -54 130 -66 2 -5 9 -8 15 -8 18 0 121 -111 151 -163 39 -67 65
-143 72 -212 3 -33 7 -72 9 -87 1 -16 -1 -28 -5 -28 -4 0 -6 -12 -5 -27 1 -16
-2 -34 -8 -40 -5 -7 -7 -13 -3 -13 3 0 0 -16 -8 -35 -9 -20 -15 -38 -15 -40 1
-26 -60 -114 -121 -175 -110 -111 -231 -163 -379 -162 -248 1 -464 173 -526
418 -32 129 0 318 71 411 14 18 22 33 18 33 -3 0 25 29 62 65 76 72 117 97
214 130 91 32 238 31 328 -1z m-4043 -19 c44 -2 80 -4 80 -5 0 -1 34 -3 75 -5
67 -3 230 -11 395 -20 33 -2 60 -4 60 -5 0 -1 47 -3 105 -6 58 -2 137 -6 175
-8 97 -6 355 -20 550 -30 44 -3 123 -7 175 -10 52 -3 136 -8 185 -11 50 -2
131 -7 180 -10 50 -3 133 -7 185 -10 200 -11 268 -15 355 -20 50 -3 131 -8
180 -10 91 -5 263 -15 345 -20 25 -2 54 -4 66 -4 21 -1 21 -1 -4 -78 -14 -43
-27 -84 -29 -91 -3 -13 -52 -13 -378 3 -182 9 -429 19 -680 30 -66 3 -169 7
-230 10 -60 3 -159 8 -220 10 -60 3 -157 7 -215 10 -58 2 -159 7 -225 9 -66 3
-120 6 -120 6 0 1 -52 3 -115 5 -63 3 -169 7 -235 10 -66 3 -163 7 -215 10
-172 7 -374 16 -437 19 -122 6 -230 70 -280 166 -38 71 -37 71 85 64 59 -3
143 -7 187 -9z m7103 -240 c7 -5 18 -15 25 -20 7 -6 37 -31 67 -55 31 -25 82
-67 115 -95 81 -67 381 -368 430 -430 22 -27 45 -56 52 -63 7 -7 13 -17 13
-21 0 -4 8 -16 18 -27 9 -11 23 -31 31 -45 8 -13 27 -45 43 -70 42 -67 77
-174 74 -229 -3 -70 -34 -106 -130 -150 -82 -38 -158 -59 -285 -76 -98 -13
-348 -18 -496 -10 -104 6 -249 17 -281 21 -17 2 -66 7 -110 10 -43 4 -81 8
-84 10 -3 2 -30 6 -60 10 -30 3 -62 8 -70 10 -8 2 -33 7 -55 10 -23 3 -52 8
-65 11 -14 3 -36 7 -48 10 -13 3 -49 12 -80 20 -32 8 -64 17 -72 19 -26 6
-143 51 -203 79 -51 23 -56 28 -47 45 5 11 14 21 18 23 5 1 30 32 55 68 26 36
51 70 55 75 69 88 209 401 228 510 2 11 8 40 15 65 6 25 12 56 14 70 1 14 5
44 9 66 l7 41 117 1 c119 0 256 22 377 58 33 10 62 18 65 19 3 0 16 7 30 15
14 7 26 12 28 11 4 -4 115 40 126 50 8 7 38 -8 74 -36z m-3940 -637 c18 -35
48 -84 67 -109 l35 -46 -83 -23 c-45 -12 -92 -24 -104 -26 -12 -2 -35 -9 -50
-15 -26 -10 -59 -18 -93 -24 -8 -1 -24 -6 -35 -10 -37 -13 -70 -23 -100 -31
-16 -4 -34 -8 -40 -10 -5 -1 -45 -12 -87 -24 -43 -11 -86 -23 -98 -25 -11 -2
-24 -6 -28 -9 -5 -3 -19 -7 -33 -10 -21 -5 -131 -35 -294 -81 -27 -8 -90 -26
-140 -39 -49 -14 -133 -37 -185 -52 -52 -14 -105 -28 -117 -30 -12 -2 -35 -9
-50 -15 -16 -6 -36 -12 -46 -14 -9 -2 -68 -18 -129 -36 -62 -17 -117 -32 -123
-34 -5 -1 -30 -8 -55 -15 -58 -17 -60 -18 -130 -35 -8 -2 -16 -4 -17 -4 -2 -1
-5 -1 -8 -1 -3 -1 -23 -7 -45 -15 -22 -8 -40 -12 -40 -9 0 3 -6 2 -12 -3 -7
-4 -17 -8 -23 -9 -8 -2 -117 -32 -175 -49 -8 -2 -73 -20 -145 -40 -71 -20
-161 -45 -200 -56 -38 -11 -79 -22 -90 -25 -27 -7 -33 -9 -85 -23 -25 -7 -56
-15 -69 -18 -13 -2 -39 -10 -57 -18 -19 -8 -34 -12 -34 -10 0 2 -18 -2 -40
-10 -22 -8 -41 -14 -43 -13 -1 0 -29 -7 -62 -17 -33 -9 -67 -19 -75 -21 -88
-21 -107 -27 -122 -34 -11 -6 -18 -5 -22 6 -9 23 3 101 23 147 22 50 87 127
107 127 8 0 14 4 14 9 0 9 63 37 102 45 13 3 39 10 58 16 19 6 46 13 60 16 14
3 48 11 75 19 28 8 52 14 55 14 3 0 17 4 33 10 15 6 38 13 50 15 12 2 60 15
107 29 118 34 276 77 297 82 10 2 52 14 93 25 41 12 82 23 90 25 8 2 15 4 15
5 0 1 10 3 22 6 12 2 70 18 130 35 59 16 117 32 128 35 11 2 52 13 90 24 69
21 246 69 275 75 8 2 16 4 18 4 1 1 4 1 7 1 3 1 23 7 45 15 22 8 44 15 48 15
17 1 89 22 117 33 17 6 34 10 39 9 5 -2 16 0 25 4 9 4 21 8 27 9 17 4 272 75
329 92 28 8 59 16 70 18 11 3 70 19 130 36 61 17 119 33 130 35 11 2 106 28
210 58 105 29 199 54 210 55 15 1 29 -15 53 -61z"/>
<path d="M6605 4995 c-231 -44 -396 -242 -396 -475 0 -41 7 -99 15 -127 14
-53 71 -161 103 -198 53 -60 170 -133 245 -152 13 -3 62 -7 111 -9 145 -5 252
38 354 142 104 106 145 211 139 359 -4 96 -22 158 -68 235 -105 173 -304 263
-503 225z m178 -280 c143 -61 170 -265 48 -365 -142 -118 -356 -13 -352 173 2
99 66 177 171 209 23 7 99 -2 133 -17z"/>
<path d="M5076 3033 c-2 -2 -16 -6 -32 -9 -16 -3 -33 -9 -39 -14 -5 -4 -12 -8
-15 -8 -3 1 -24 -9 -47 -21 -90 -45 -192 -179 -210 -273 -3 -18 -10 -41 -15
-50 -5 -11 -5 -18 0 -18 5 0 6 -18 2 -40 -4 -22 -3 -40 1 -40 5 0 8 -3 7 -7
-1 -5 2 -28 6 -53 5 -25 8 -48 7 -52 0 -5 3 -8 9 -8 6 0 9 -3 8 -7 -7 -26 76
-134 144 -188 25 -20 94 -53 128 -61 19 -4 42 -9 50 -11 8 -3 35 -5 60 -7 160
-8 320 85 399 234 18 33 29 60 25 60 -3 0 -2 6 5 13 6 8 14 46 17 85 8 86 -7
168 -45 240 -31 62 -107 152 -127 152 -8 0 -14 4 -14 9 0 9 -105 59 -143 67
-28 7 -175 12 -181 7z m139 -277 c19 -8 43 -23 53 -33 49 -46 67 -136 38 -191
-20 -38 -85 -95 -101 -88 -8 3 -17 1 -20 -4 -10 -16 -87 -1 -122 23 -61 42
-90 131 -64 200 31 80 137 126 216 93z"/>
</g>
</svg>
